<?xml version="1.0" standalone="no"?><!DOCTYPE svg PUBLIC "-//W3C//DTD SVG 1.1//EN" "http://www.w3.org/Graphics/SVG/1.1/DTD/svg11.dtd"><svg t="1771419776269" class="icon" viewBox="0 0 1024 1024" version="1.1" xmlns="http://www.w3.org/2000/svg" p-id="1615" xmlns:xlink="http://www.w3.org/1999/xlink" width="200" height="200"><path d="M512 165c-221.47 0-401 160.28-401 358 0 91.34 38.31 174.68 101.37 237.93 0.43 28.95-0.38 89.6-0.93 124.6-0.2 13 12.41 22.37 24.8 18.42l139.02-44.31s88.72 21.35 136.74 21.35c221.47 0 401-160.28 401-358s-179.53-358-401-358zM315.03 461c0-38.66 31.34-70 70-70s70 31.34 70 70-31.34 70-70 70-70-31.34-70-70zM518.4 715.79c-64.28 3.81-115.86-47.04-112.94-111.37 0.25-5.58 0.94-11.05 2.01-16.37 0-0.03 0.03-0.05 0.06-0.05h208.93s0.05 0.02 0.06 0.05c1.39 6.88 2.13 13.99 2.13 21.28 0 56.75-44.33 103.15-100.24 106.46zM639.97 531c-38.66 0-70-31.34-70-70s31.34-70 70-70 70 31.34 70 70-31.34 70-70 70z" p-id="1616"></path></svg>